VIDEO INFO:

Format                           : Matroska
File size                        : 1.69 GiB
Duration                         : 1h 21mn
Overall bit rate                 : 2 956 Kbps
Encoded date                     : UTC 2011-07-31 10:27:50
Writing application              : mkvmerge v4.9.1 ('Ich will') gemaakt op Jul 11 2011 23:53:15
Writing library                  : libebml v1.2.1 + libmatroska v1.1.1

Video
ID                               : 1
Format                           : AVC
Format/Info                      : Advanced Video Codec
Format profile                   : High@L4.1
Format settings, CABAC           : Yes
Format settings, ReFrames        : 9 frames
Codec ID                         : V_MPEG4/ISO/AVC
Duration                         : 1h 21mn
Bit rate                         : 2 673 Kbps
Width                            : 960 pixels
Height                           : 544 pixels
Display aspect ratio             : 16:9
Frame rate                       : 25.000 fps
Color space                      : YUV
Chroma subsampling               : 4:2:0
Bit depth                        : 8 bits
Scan type                        : Progressive
Bits/(Pixel*Frame)               : 0.205
Stream size                      : 1.53 GiB (90%)
Title                            : War of the Worlds
Writing library                  : x264 core 115 r1947 b5a8ad7
Encoding settings                : cabac=1 / ref=9 / deblock=1:-3:-3 / analyse=0x3:0x133 / me=umh / subme=10 / psy=1 / psy_rd=1.00:0.25 / mixed_ref=1 / me_range=24 / chroma_me=1 / trellis=2 / 8x8dct=1 / cqm=0 / deadzone=21,11 / fast_pskip=0 / chroma_qp_offset=-4 / threads=3 / sliced_threads=0 / nr=0 / decimate=1 / interlaced=0 / bluray_compat=0 / constrained_intra=0 / bframes=7 / b_pyramid=2 / b_adapt=2 / b_bias=0 / direct=3 / weightb=1 / open_gop=0 / weightp=2 / keyint=250 / keyint_min=25 / scenecut=40 / intra_refresh=0 / rc_lookahead=60 / rc=crf / mbtree=1 / crf=19.0 / qcomp=0.70 / qpmin=0 / qpmax=51 / qpstep=4 / ip_ratio=1.40 / aq=1:1.00
Language                         : English

Audio
ID                               : 2
Format                           : AC-3
Format/Info                      : Audio Coding 3
Mode extension                   : CM (complete main)
Codec ID                         : A_AC3
Duration                         : 1h 21mn
Bit rate mode                    : Constant
Bit rate                         : 224 Kbps
Channel(s)                       : 2 channels
Channel positions                : Front: L R
Sampling rate                    : 48.0 KHz
Bit depth                        : 16 bits
Compression mode                 : Lossy
Stream size                      : 131 MiB (8%)
Title                            : English
Language                         : English

Text
ID                               : 3
Format                           : UTF-8
Codec ID                         : S_TEXT/UTF8
Codec ID/Info                    : UTF-8 Plain Text
Language                         : Dutch

-------------------------------------

Verenigde Staten
Sciencefiction
85 minuten

geregisseerd door Byron Haskin
met Gene Barry, Ann Robinson en Les Tremayne

In de buurt van een Californisch dorpje landt een gigantische meteoor in een veld. Een paar wetenschappers en wat voorbijgangers staan op afstand toe te kijken. Voorlopig is het ding nog te heet om te benaderen. Drie mannen houden die nacht de wacht bij het gevaarte. Er gebeurt niets... totdat ze een vreemd geluid horen, de meteoor gaat open en een buitenaards schip verschijnt, dat alles zal vernietigen dat erbij in de buurt komt.

-Ondertiteling (nederlands) in de film met de mogelijkheid deze aan/uit te zetten. 